<svg width="76" height="42" viewBox="0 0 76 42" fill="none" xmlns="http://www.w3.org/2000/svg">
<mask id="mask0" mask-type="alpha" maskUnits="userSpaceOnUse" x="0" y="0" width="76" height="42">
<path fill-rule="evenodd" clip-rule="evenodd" d="M0.5 4.74084C0.5 2.53171 2.29086 0.740845 4.5 0.740845H71.3026C73.5117 0.740845 75.3026 2.53171 75.3026 4.74084V37.2589C75.3026 39.4681 73.5117 41.2589 71.3026 41.2589H4.5C2.29086 41.2589 0.5 39.4681 0.5 37.2589V4.74084Z" fill="white"/>
</mask>
<g mask="url(#mask0)">
<path fill-rule="evenodd" clip-rule="evenodd" d="M39.8832 33.9119V33.1585C39.8832 33.1129 39.8747 33.0973 39.8589 33.081C39.8425 33.064 39.8195 33.051 39.7893 33.0425C39.7605 33.0334 39.7309 33.0288 39.6496 33.0288H36.2817C36.2003 33.0288 36.1708 33.0334 36.1406 33.0425C36.1111 33.051 36.0875 33.064 36.0711 33.081C36.056 33.0973 36.0468 33.1129 36.0468 33.1585V33.9119C36.0468 33.9568 36.056 33.9731 36.0711 33.9894C36.0875 34.0064 36.1111 34.0194 36.1406 34.0285C36.1708 34.037 36.2003 34.0415 36.2817 34.0415H39.6496C39.7309 34.0415 39.7605 34.037 39.7893 34.0285C39.8195 34.0194 39.8425 34.0064 39.8589 33.9894C39.8747 33.9731 39.8832 33.9568 39.8832 33.9119V33.9119ZM47.8158 34.4462C47.8112 34.456 47.8112 34.4684 47.8112 34.4938V35.2354C47.8112 35.2609 47.8112 35.2739 47.8158 35.283C47.8204 35.2915 47.827 35.2987 47.8355 35.3032C47.846 35.3084 47.8578 35.3084 47.8834 35.3084H48.4504V36.7552C48.4504 36.7799 48.4504 36.793 48.4557 36.8028C48.4596 36.8112 48.4662 36.8177 48.4754 36.8223C48.4845 36.8275 48.4977 36.8275 48.5226 36.8275H49.6566C49.6822 36.8275 49.6947 36.8275 49.7045 36.8223C49.713 36.8177 49.7196 36.8112 49.7242 36.8028C49.7288 36.793 49.7288 36.7799 49.7288 36.7552V33.1012C49.7288 33.0757 49.7288 33.0627 49.7242 33.0536C49.7196 33.0445 49.713 33.0379 49.7045 33.0334C49.6947 33.0288 49.6822 33.0288 49.6566 33.0288H48.5226C48.4977 33.0288 48.4845 33.0288 48.4754 33.0334C48.4701 33.036 48.4655 33.0399 48.4616 33.0438C48.4603 33.0458 48.4583 33.0477 48.457 33.0497L48.4557 33.0536C48.4504 33.0627 48.4504 33.0757 48.4504 33.1012V34.4215H47.8834C47.8578 34.4215 47.846 34.4215 47.8355 34.4267C47.827 34.4313 47.8204 34.4378 47.8158 34.4462V34.4462ZM56.5058 35.9406V33.9151H58.9904C59.0159 33.9151 59.0291 33.9151 59.0383 33.9099C59.0474 33.9053 59.054 33.8988 59.0586 33.8904C59.0639 33.8806 59.0639 33.8682 59.0639 33.8434V33.1012C59.0639 33.0757 59.0639 33.0627 59.0586 33.0536C59.054 33.0445 59.0474 33.0379 59.0383 33.0334C59.0291 33.0288 59.0159 33.0288 58.9904 33.0288H56.4336H56.3234H55.4276C55.402 33.0288 55.3895 33.0288 55.3797 33.0334C55.3718 33.0379 55.3646 33.0445 55.36 33.0536C55.3548 33.0627 55.3548 33.0757 55.3548 33.1012V36.7552C55.3548 36.7799 55.3548 36.793 55.36 36.8028C55.3646 36.8112 55.3718 36.8177 55.3797 36.8223C55.3895 36.8275 55.402 36.8275 55.4276 36.8275H56.4336H56.4474H58.9904C59.0159 36.8275 59.0291 36.8275 59.0383 36.8223C59.0474 36.8177 59.054 36.8112 59.0586 36.8028C59.0639 36.793 59.0639 36.7799 59.0639 36.7545V36.0129C59.0639 35.9881 59.0639 35.9751 59.0586 35.9653C59.054 35.9575 59.0474 35.9503 59.0383 35.9458C59.0291 35.9406 59.0159 35.9406 58.9904 35.9406H56.5058ZM56.1272 31.9137C56.1226 31.9235 56.1226 31.9359 56.1226 31.9613V32.7036C56.1226 32.729 56.1226 32.7414 56.1272 32.7511C56.1317 32.759 56.139 32.7661 56.1475 32.7707C56.1573 32.7759 56.1692 32.7759 56.1947 32.7759H56.9448C56.9704 32.7759 56.9829 32.7759 56.9927 32.7707C57.0013 32.7661 57.0085 32.759 57.0131 32.7511C57.017 32.7414 57.017 32.729 57.017 32.7036V31.9613C57.017 31.9359 57.017 31.9235 57.0131 31.9137C57.0098 31.9078 57.0052 31.9026 57.0006 31.8987C56.998 31.8968 56.9954 31.8955 56.9927 31.8935C56.9829 31.8889 56.9704 31.8889 56.9448 31.8889H56.1947C56.1692 31.8889 56.1573 31.8889 56.1475 31.8935C56.139 31.8981 56.1317 31.9052 56.1272 31.9137V31.9137ZM57.4009 31.9613C57.4009 31.9359 57.4009 31.9235 57.4055 31.9137C57.4101 31.9052 57.4173 31.8981 57.4252 31.8935C57.435 31.8889 57.4482 31.8889 57.4738 31.8889H58.2232C58.2488 31.8889 58.2619 31.8889 58.2718 31.8935C58.2796 31.8981 58.2869 31.9052 58.2914 31.9137C58.296 31.9235 58.296 31.9359 58.296 31.9613V32.7036C58.296 32.729 58.296 32.7414 58.2914 32.7511C58.2869 32.759 58.2796 32.7661 58.2718 32.7707C58.2619 32.7759 58.2488 32.7759 58.2232 32.7759H57.4738C57.4482 32.7759 57.435 32.7759 57.4252 32.7707C57.4173 32.7661 57.4101 32.759 57.4055 32.7511C57.4009 32.7414 57.4009 32.729 57.4009 32.7036V31.9613ZM56.767 34.4458C56.7624 34.4556 56.7624 34.468 56.7624 34.4934V35.235C56.7624 35.2604 56.7624 35.2735 56.767 35.2826C56.7709 35.2911 56.7781 35.2982 56.7867 35.3028C56.7958 35.308 56.809 35.308 56.8339 35.308H58.4798C58.5047 35.308 58.5178 35.308 58.527 35.3028C58.5355 35.2982 58.5428 35.2911 58.5467 35.2826C58.552 35.2735 58.552 35.2604 58.552 35.235V34.4934C58.552 34.468 58.552 34.4556 58.5467 34.4458C58.5428 34.4374 58.5355 34.4308 58.527 34.4263C58.5178 34.4211 58.5047 34.4211 58.4798 34.4211H56.8339C56.809 34.4211 56.7958 34.4211 56.7867 34.4263C56.7781 34.4308 56.7709 34.4374 56.767 34.4458V34.4458ZM45.7703 33.0536C45.7651 33.0627 45.7651 33.0757 45.7651 33.1012V36.7552C45.7651 36.7799 45.7651 36.793 45.7703 36.8028C45.7749 36.8112 45.7815 36.8177 45.79 36.8223C45.7999 36.8275 45.8123 36.8275 45.8379 36.8275H46.9713C46.9968 36.8275 47.0093 36.8275 47.0192 36.8223C47.0277 36.8177 47.0343 36.8112 47.0388 36.8028C47.0441 36.793 47.0441 36.7799 47.0441 36.7552V35.3084H47.6104C47.636 35.3084 47.6485 35.3084 47.659 35.3032C47.6669 35.2987 47.6741 35.2915 47.678 35.283C47.6833 35.2739 47.6833 35.2609 47.6833 35.2354V34.4938C47.6833 34.4684 47.6833 34.456 47.678 34.4462C47.6741 34.4378 47.6669 34.4313 47.659 34.4267C47.6485 34.4215 47.636 34.4215 47.6104 34.4215H47.0441V33.1012C47.0441 33.0757 47.0441 33.0627 47.0388 33.0536C47.0343 33.0445 47.0277 33.0379 47.0192 33.0334C47.0093 33.0288 46.9968 33.0288 46.9713 33.0288H45.8379C45.8123 33.0288 45.7999 33.0288 45.79 33.0334C45.7815 33.0379 45.7749 33.0445 45.7703 33.0536V33.0536ZM37.3264 34.2404C37.3264 34.215 37.3264 34.2026 37.3303 34.1928C37.3349 34.1843 37.3422 34.1772 37.3507 34.1726C37.3599 34.1687 37.373 34.1687 37.3986 34.1687H38.5319C38.5569 34.1687 38.57 34.1687 38.5798 34.1726C38.5877 34.1772 38.5949 34.1843 38.5995 34.1928C38.6048 34.2026 38.6048 34.215 38.6048 34.2404V36.7553C38.6048 36.78 38.6048 36.793 38.5995 36.8028C38.5949 36.8113 38.5877 36.8178 38.5798 36.8224C38.57 36.8276 38.5569 36.8276 38.5319 36.8276H37.3986C37.373 36.8276 37.3599 36.8276 37.3507 36.8224C37.3422 36.8178 37.3349 36.8113 37.3303 36.8028C37.3264 36.793 37.3264 36.78 37.3264 36.7553V34.2404ZM66.5024 33.0288C66.4899 33.0288 66.4794 33.0386 66.4794 33.0516V33.8943C66.4794 33.9053 66.4892 33.9151 66.5011 33.9151H67.2479C67.53 33.9151 67.7584 34.1419 67.7584 34.4215C67.7584 34.7011 67.53 34.9278 67.2479 34.9278H66.5011C66.4892 34.9278 66.4794 34.937 66.4794 34.9487V35.7913C66.4794 35.8037 66.4899 35.8141 66.5024 35.8141H67.3785C68.1535 35.8141 68.7808 35.1911 68.7808 34.4215C68.7808 33.6525 68.1535 33.0288 67.3785 33.0288H66.5024ZM28.1193 33.0516C28.1193 33.0386 28.1298 33.0288 28.1423 33.0288H29.0184C29.7927 33.0288 30.4208 33.6525 30.4208 34.4215C30.4208 35.1911 29.7927 35.8141 29.0184 35.8141H28.1423C28.1298 35.8141 28.1193 35.8037 28.1193 35.7913V34.9487C28.1193 34.937 28.1285 34.9278 28.1397 34.9278H28.8878C29.17 34.9278 29.3977 34.7011 29.3977 34.4215C29.3977 34.1419 29.17 33.9151 28.8878 33.9151H28.1397C28.1285 33.9151 28.1193 33.9053 28.1193 33.8943V33.0516ZM65.0783 33.0536C65.0731 33.0627 65.0731 33.0757 65.0731 33.1012V36.7552C65.0731 36.7799 65.0731 36.793 65.0783 36.8028C65.0822 36.8112 65.0895 36.8177 65.098 36.8223C65.1078 36.8275 65.1203 36.8275 65.1459 36.8275H66.1513C66.1769 36.8275 66.1893 36.8275 66.1992 36.8223C66.2077 36.8177 66.2149 36.8112 66.2195 36.8028C66.2241 36.793 66.2241 36.7799 66.2241 36.7552V33.1012C66.2241 33.0757 66.2241 33.0627 66.2195 33.0536C66.2149 33.0445 66.2077 33.0379 66.1992 33.0334C66.1893 33.0288 66.1769 33.0288 66.1513 33.0288H65.1459C65.1203 33.0288 65.1078 33.0288 65.098 33.0334C65.0895 33.0379 65.0822 33.0445 65.0783 33.0536V33.0536ZM26.713 33.1012C26.713 33.0757 26.713 33.0627 26.7176 33.0536C26.7222 33.0445 26.7294 33.0379 26.7379 33.0334C26.7471 33.0288 26.7602 33.0288 26.7858 33.0288H27.7912C27.8161 33.0288 27.8293 33.0288 27.8384 33.0334C27.8476 33.0379 27.8542 33.0445 27.8588 33.0536C27.864 33.0627 27.864 33.0757 27.864 33.1012V36.7552C27.864 36.7799 27.864 36.793 27.8588 36.8028C27.8542 36.8112 27.8476 36.8177 27.8384 36.8223C27.8293 36.8275 27.8161 36.8275 27.7912 36.8275H26.7858C26.7602 36.8275 26.7471 36.8275 26.7379 36.8223C26.7294 36.8177 26.7222 36.8112 26.7176 36.8028C26.713 36.793 26.713 36.7799 26.713 36.7552V33.1012ZM18.4181 35.1811C18.399 35.1811 18.3813 35.1935 18.3754 35.2111L18.1077 35.9697C18.0978 35.9996 18.1195 36.0303 18.151 36.0303H19.302C19.3342 36.0303 19.3565 35.997 19.3434 35.9671L19.0172 35.2085C19.01 35.1922 18.9936 35.1811 18.9759 35.1811H18.4181ZM18.2336 33.092C18.2205 33.0621 18.2421 33.0288 18.275 33.0288H19.3013C19.319 33.0288 19.3348 33.0393 19.3427 33.0555L20.9905 36.7636C21.0036 36.7936 20.9813 36.8275 20.9485 36.8275H19.9228C19.9051 36.8275 19.8887 36.8164 19.8808 36.8008L18.2336 33.092ZM18.59 34.2353C18.5953 34.2464 18.5959 34.2582 18.5913 34.2699L17.5932 36.8095C17.5866 36.8278 17.5696 36.8388 17.5512 36.8388H16.4894C16.4566 36.8388 16.4349 36.8063 16.4467 36.7769L17.9771 33.0571C17.9928 33.0199 18.0447 33.0193 18.0604 33.0558L18.59 34.2353ZM9.39535 33.0288H10.0352H10.9126H11.0406C11.0661 33.0288 11.078 33.0288 11.0885 33.0334C11.097 33.0379 11.1036 33.0445 11.1081 33.0536C11.1127 33.0627 11.1127 33.0757 11.1127 33.1012V36.7552C11.1127 36.7799 11.1127 36.793 11.1081 36.8028C11.1036 36.8112 11.097 36.8177 11.0885 36.8223C11.078 36.8275 11.0661 36.8275 11.0406 36.8275H10.0352C10.0096 36.8275 9.99647 36.8275 9.98663 36.8223C9.97875 36.8177 9.97153 36.8112 9.96694 36.8028C9.96235 36.793 9.96235 36.7799 9.96235 36.7552V33.9151H9.39535C9.37042 33.9151 9.35729 33.9151 9.3481 33.9099C9.33892 33.9053 9.3317 33.8988 9.32776 33.8904C9.32317 33.8806 9.32317 33.8682 9.32317 33.8434V33.1012C9.32317 33.0757 9.32317 33.0627 9.32776 33.0536C9.3317 33.0445 9.33892 33.0379 9.3481 33.0334C9.35729 33.0288 9.37042 33.0288 9.39535 33.0288V33.0288ZM7.28166 33.0536C7.27707 33.0627 7.27707 33.0757 7.27707 33.1012V36.7552C7.27707 36.7799 7.27707 36.793 7.28166 36.8028C7.28626 36.8112 7.29348 36.8177 7.30201 36.8223C7.31119 36.8275 7.32432 36.8275 7.34991 36.8275H8.35528C8.38087 36.8275 8.39334 36.8275 8.40318 36.8223C8.41171 36.8177 8.41893 36.8112 8.42353 36.8028C8.42746 36.793 8.42746 36.7799 8.42746 36.7552V33.9151H8.99511C9.02005 33.9151 9.03252 33.9151 9.04236 33.9099C9.0509 33.9053 9.05746 33.8988 9.06205 33.8904C9.0673 33.8806 9.0673 33.8682 9.0673 33.8434V33.1012C9.0673 33.0757 9.0673 33.0627 9.06205 33.0536C9.05746 33.0445 9.0509 33.0379 9.04236 33.0334C9.03252 33.0288 9.02005 33.0288 8.99511 33.0288H8.35528H7.47722H7.34991C7.32432 33.0288 7.31119 33.0288 7.30201 33.0334C7.29348 33.0379 7.28626 33.0445 7.28166 33.0536V33.0536ZM7.27707 27.9449C7.27707 27.8179 7.27707 27.7553 7.30201 27.7071C7.32366 27.6647 7.35779 27.6302 7.4011 27.6087C7.44966 27.5839 7.51332 27.5839 7.63997 27.5839H68.2907C68.4173 27.5839 68.481 27.5839 68.5295 27.6087C68.5722 27.6302 68.6076 27.6647 68.6286 27.7071C68.6536 27.7553 68.6536 27.8179 68.6536 27.9449V28.1105C68.6536 28.2362 68.6536 28.2995 68.6286 28.3477C68.6076 28.3894 68.5722 28.4246 68.5295 28.4461C68.481 28.4702 68.4173 28.4702 68.2907 28.4702H7.63997C7.51332 28.4702 7.44966 28.4702 7.4011 28.4461C7.35779 28.4246 7.32366 28.3894 7.30201 28.3477C7.27707 28.2995 7.27707 28.2362 7.27707 28.1105V27.9449ZM37.1801 12.0963C37.207 12.155 37.2083 12.2214 37.1847 12.2814L32.5208 24.1564C32.4853 24.2483 32.3954 24.3089 32.2957 24.3089H27.3797C27.2091 24.3089 27.0923 24.1362 27.1566 23.9785L34.3799 6.42009C34.4258 6.30996 34.582 6.308 34.6306 6.41684L37.1801 12.0963ZM35.9463 6.31801C35.9063 6.22873 35.9726 6.12771 36.0704 6.12771H41.1451C41.2396 6.12771 41.3262 6.18311 41.3649 6.26978L49.3101 23.9716C49.3816 24.1306 49.2648 24.3092 49.0896 24.3092H44.1783C44.0824 24.3092 43.9965 24.2538 43.9578 24.1671L35.9463 6.31801ZM63.3031 6.12771C63.1699 6.12771 63.0623 6.23459 63.0623 6.36688V12.8616H60.478C60.4032 12.8616 60.3422 12.9222 60.3422 12.9965V17.4404C60.3422 17.5147 60.4032 17.5759 60.478 17.5759H63.0623V24.0693C63.0623 24.2023 63.1699 24.3092 63.3031 24.3092H68.261C68.3936 24.3092 68.5019 24.2023 68.5019 24.0693V6.36688C68.5019 6.23459 68.3936 6.12771 68.261 6.12771H63.3031ZM50.8214 6.36688C50.8214 6.23459 50.9297 6.12771 51.0629 6.12771H56.0209C56.1541 6.12771 56.2617 6.23459 56.2617 6.36688V12.8616H58.846C58.9215 12.8616 58.9825 12.9222 58.9825 12.9965V17.4404C58.9825 17.5147 58.9215 17.5759 58.846 17.5759H56.2617V24.0693C56.2617 24.2023 56.1541 24.3092 56.0209 24.3092H51.0629C50.9297 24.3092 50.8214 24.2023 50.8214 24.0693V6.36688ZM19.5409 24.0693V10.8414H16.9566C16.8812 10.8414 16.8201 10.7808 16.8201 10.7065V6.26261C16.8201 6.18832 16.8812 6.12771 16.9566 6.12771H19.7818H21.339H24.7397C24.8729 6.12771 24.9812 6.23459 24.9812 6.36688V24.0693C24.9812 24.2023 24.8729 24.3092 24.7397 24.3092H19.7818C19.6485 24.3092 19.5409 24.2023 19.5409 24.0693V24.0693ZM7.30057 6.36688C7.30057 6.23459 7.40819 6.12771 7.54141 6.12771H10.2615H12.4987H15.3245C15.3993 6.12771 15.4603 6.18832 15.4603 6.26261V10.7065C15.4603 10.7808 15.3993 10.8414 15.3245 10.8414H12.7408V24.0693C12.7408 24.2023 12.6325 24.3092 12.4987 24.3092H7.54141C7.40819 24.3092 7.30057 24.2023 7.30057 24.0693V6.36688ZM36.5081 16.9015C36.4517 16.9015 36.4005 16.9366 36.3808 16.9901L35.0296 20.62C34.9712 20.7757 35.0874 20.9426 35.2553 20.9426H40.9955C41.1714 20.9426 41.2882 20.7621 41.2154 20.6037L39.5695 16.9816C39.5472 16.9327 39.4986 16.9015 39.4455 16.9015H36.5081ZM0.578749 1.13316C0.5 1.28696 0.5 1.48833 0.5 1.89107V40.1087C0.5 40.5114 0.5 40.7128 0.578749 40.8666C0.648311 41.0015 0.759216 41.1116 0.895059 41.1801C1.04993 41.2589 1.25271 41.2589 1.65827 41.2589H74.1443C74.5499 41.2589 74.7527 41.2589 74.9075 41.1801C75.0434 41.1116 75.1543 41.0015 75.2238 40.8666C75.3026 40.7128 75.3026 40.5114 75.3026 40.1087V1.89107C75.3026 1.48833 75.3026 1.28696 75.2238 1.13316C75.1543 0.99761 75.0434 0.888126 74.9075 0.819047C74.7527 0.740845 74.5499 0.740845 74.1443 0.740845H1.65827C1.25271 0.740845 1.04993 0.740845 0.895059 0.819047C0.759216 0.888126 0.648311 0.99761 0.578749 1.13316V1.13316Z" fill="white"/>
</g>
</svg>
